<!DOCTYPE svg PUBLIC "-//W3C//DTD SVG 1.1//EN" "http://www.w3.org/Graphics/SVG/1.1/DTD/svg11.dtd">
<!-- Uploaded to: SVG Repo, www.svgrepo.com, Transformed by: SVG Repo Mixer Tools -->
<svg height="800px" width="800px" version="1.1" id="Capa_1" xmlns="http://www.w3.org/2000/svg" xmlns:xlink="http://www.w3.org/1999/xlink" viewBox="0 0 20.001 20.001" xml:space="preserve" fill="#000000">
<g id="SVGRepo_bgCarrier" stroke-width="0"/>
<g id="SVGRepo_tracerCarrier" stroke-linecap="round" stroke-linejoin="round"/>
<g id="SVGRepo_iconCarrier"> <g> <g> <path style="fill:#ffffff;" d="M7.147,3.108L7.058,3.174C6.447,3.615,5.911,4.154,5.474,4.77c-0.07,0.098-0.137,0.2-0.203,0.303 c-0.174,0.271-0.327,0.555-0.458,0.85C4.549,6.509,4.369,7.14,4.279,7.8c-0.04,0.297-0.068,0.602-0.068,0.911 c0,3.768,3.064,6.832,6.831,6.832c3.768,0,6.832-3.063,6.832-6.832c0-0.5-0.057-0.987-0.159-1.459 c-0.114-0.522-0.291-1.02-0.519-1.491c-0.145-0.3-0.303-0.594-0.49-0.865c-0.184-0.272-0.393-0.526-0.613-0.77 c-1.25-1.376-3.049-2.247-5.051-2.247C9.596,1.881,8.254,2.337,7.147,3.108z M10.019,3.004C9.405,3.572,8.885,4.257,8.491,5.028 c-0.269-0.349-0.47-0.756-0.573-1.197C8.546,3.425,9.256,3.142,10.019,3.004z M10.974,9.314c-0.914,0-1.779-0.196-2.552-0.54 c-0.001-0.067-0.005-0.133-0.005-0.2c0-0.783,0.127-1.533,0.358-2.229c0.627,0.43,1.384,0.683,2.198,0.683 c0.864,0,1.66-0.283,2.309-0.757c0.248,0.717,0.385,1.493,0.385,2.303c0,0.047-0.004,0.091-0.004,0.136 C12.858,9.093,11.944,9.314,10.974,9.314z M13.606,9.484c-0.133,1.041-0.486,2-1.01,2.824c-0.518,0.132-1.062,0.204-1.623,0.204 c-0.502,0-0.992-0.058-1.461-0.161c-0.529-0.818-0.891-1.773-1.03-2.808c0.769,0.292,1.608,0.456,2.491,0.456 C11.911,10,12.804,9.814,13.606,9.484z M7.252,4.325c0.185,0.564,0.495,1.068,0.893,1.486C7.849,6.6,7.675,7.457,7.651,8.356 C6.844,7.844,6.188,7.153,5.752,6.341C6.1,5.564,6.615,4.877,7.252,4.325z M5.24,8.712c0-0.533,0.077-1.05,0.215-1.544 c0.553,0.818,1.313,1.503,2.213,1.995c0.076,1.02,0.344,1.976,0.766,2.833c-1.5-0.635-2.668-1.809-3.193-3.252 C5.242,8.735,5.24,8.724,5.24,8.712z M10.322,14.478c-2.129-0.277-3.928-1.727-4.685-3.666c0.842,0.998,2.009,1.756,3.352,2.14 C9.345,13.465,9.855,14.073,10.322,14.478L10.322,14.478z M10.952,13.999c-0.321-0.24-0.598-0.52-0.871-0.822 c0.272,0.031,0.613,0.05,0.893,0.05c0.336,0,0.598-0.026,0.92-0.065C11.614,13.468,11.282,13.751,10.952,13.999z M11.79,14.464 c-0.002-0.002-0.002,0.002-0.004,0.002c0.473-0.42,0.996-1.055,1.344-1.566c1.41-0.438,2.611-1.289,3.434-2.398 C15.883,12.599,14.034,14.173,11.79,14.464z M16.831,8.353c-0.432,1.562-1.599,2.855-3.145,3.568 c0.412-0.859,0.67-1.822,0.734-2.837c0.891-0.52,1.643-1.226,2.174-2.064C16.722,7.447,16.8,7.894,16.831,8.353z M16.271,6.206 c-0.414,0.825-1.049,1.534-1.841,2.067c-0.034-0.907-0.22-1.771-0.53-2.565c0.371-0.421,0.664-0.923,0.828-1.477 C15.378,4.766,15.903,5.44,16.271,6.206z M14.05,3.757c-0.09,0.429-0.268,0.823-0.512,1.168c-0.387-0.729-0.887-1.379-1.473-1.921 C12.782,3.134,13.45,3.393,14.05,3.757z M12.978,5.529c-0.545,0.451-1.241,0.723-2.004,0.723c-0.716,0-1.374-0.24-1.904-0.647 c0.461-0.985,1.141-1.826,1.971-2.443C11.853,3.76,12.519,4.575,12.978,5.529z"/> <path style="fill:#ffffff;" d="M16.639,13.659c-1.432,1.682-3.521,2.646-5.73,2.646c-4.148,0-7.525-3.375-7.525-7.524 s3.377-7.525,7.525-7.525c0.348,0,0.629-0.282,0.629-0.629C11.536,0.28,11.255,0,10.907,0C6.065,0,2.126,3.94,2.126,8.782 c0,4.493,3.393,8.208,7.751,8.719v0.973H9.148c-0.256,0-0.462,0.199-0.48,0.449c-0.203,0.084-0.348,0.285-0.348,0.519 c0,0.31,0.25,0.559,0.561,0.559h3.871c0.309,0,0.561-0.249,0.561-0.559c0-0.233-0.145-0.435-0.348-0.519 c-0.018-0.25-0.225-0.449-0.479-0.449h-0.714v-0.953c2.252-0.221,4.338-1.305,5.824-3.045c0.225-0.266,0.193-0.662-0.07-0.886 C17.261,13.364,16.864,13.395,16.639,13.659z"/> </g> </g> </g>
</svg>